<?xml version="1.0" standalone="no"?> <!DOCTYPE svg PUBLIC "-//W3C//DTD SVG 1.0//EN" "http://www.w3.org/TR/2001/REC-SVG-20010904/DTD/svg10.dtd" > <svg xmlns="http://www.w3.org/2000/svg" width="100%" height="100%">
<defs >
<font id="archerpro-semiboldita" horiz-adv-x="431" ><font-face
    font-family="ArcherPro Semibold"
    units-per-em="1000"
    panose-1="2 0 0 0 0 0 0 0 0 0"
    ascent="800"
    descent="-200"
    alphabetic="0" />
<missing-glyph horiz-adv-x="642" d="M633 545L552 128Q548 95 530 64Q488 1 416 1H252L51 -177L88 14Q63 21 43 38Q9 68 9 111Q9 124 12 137L90 536Q101 568 119 594Q164 652 225 652H548Q580 652 599 642Q636 625 636 577Q636 563 633 545ZM494 109L574 524Q578
543 578 559Q578 588 564 599Q557 604 548 604Q543 604 540 603H244Q186 603 154 558Q140 538 136 513L63 136Q61 122 61 118Q61 75 98 67Q116 63 126 63Q133 63 147 65L124 -54L242 49H395Q456 49 482 79Q491 92 494 109ZM487 400Q484 382 477 369T456 346T433
331T404 318T379 308Q360 300 357 289T352 262H248Q254 326 305 352Q319 355 341 366T366 392V397Q366 418 338 418Q319 418 307 406T293 375H175Q190 430 235 467T358 505Q425 505 457 479T489 416Q489 410 487 400ZM327 131H223L241 226H345L327 131Z" />
<glyph unicode=" " glyph-name="space" horiz-adv-x="208" />
<glyph unicode="!" glyph-name="exclam" horiz-adv-x="254" d="M107 185L177 657H287L150 185H107ZM132 -8T105 -8T60 11T41 57T59 103T105 123T150 104T169 57T151 11Z" />
<glyph unicode="&quot;" glyph-name="quotedbl" horiz-adv-x="375" d="M280 400L296 609Q298 637 314 653T354 670Q379 670 395 654T412 614Q412 602 404 584L316 400H280ZM100 400L116 609Q118 637 135 653T175 670Q199 670 215 654T232 614Q232 600 225 584L136
400H100Z" />
<glyph unicode="#" glyph-name="numbersign" horiz-adv-x="573" d="M80 325L97 396H195L228 515H307L274 396H391L424 515H503L470 396H560L543 325H450L415 198H511L494 127H395L360 0H281L317 127H198L164 0H85L120 127H31L48 198H140L175 325H80ZM252 328L214
195H338L375 328H252Z" />
<glyph unicode="$" glyph-name="dollar" horiz-adv-x="504" d="M188 -106L127 -89Q140 -41 158 11Q102 28 66 61T29 133Q29 159 44 177T84 195Q106 195 120 180T135 144Q135 121 118 106Q133 85 183 72L233 231Q204 244 185 254T145 282T114 321T103 373Q103 432
158 474T300 517Q312 517 318 516L340 584L401 567L381 505Q430 491 461 461T492 395Q492 367 477 351T437 334Q415 334 401 348T386 384Q386 406 402 423Q389 436 356 444L308 290Q339 276 359 265T401 236T435 196T446 147Q446 82 392 40T249 -2Q239 -2 221 0L188
-106ZM355 137Q355 178 283 210L238 65H242Q293 65 324 84T355 137ZM194 382Q194 346 258 314L300 450Q249 450 222 432T194 382Z" />
<glyph unicode="%" glyph-name="percent" horiz-adv-x="652" d="M469 45Q497 45 519 72T542 135Q542 160 528 176T491 192Q462 192 440 165T418 102Q418 77 432 61T469 45ZM71 -2L37 37L325 279L609 530L643 491L354 248L71 -2ZM175 323Q204 323 226 350T248 414Q248
439 234 455T197 471Q169 471 147 444T124 381Q124 356 138 340T175 323ZM173 271Q124 271 94 302T63 381Q63 438 102 481T200 524Q249 524 279 493T310 413Q310 356 270 314T173 271ZM466 -8Q417 -8 387 23T356 102Q356 159 396 202T493 245Q542 245 572 214T603
135Q603 77 564 35T466 -8Z" />
<glyph unicode="&amp;" glyph-name="ampersand" horiz-adv-x="633" d="M15 145Q15 275 192 348Q154 411 154 469Q154 539 206 588T334 638Q401 638 442 599T484 505Q484 444 437 400T304 319L335 283L400 206Q448 271 483 298T563 326Q594 326 614 307T634 263Q634
240 618 224T578 207Q544 207 530 237Q523 235 515 229T494 206T476 183T451 149L548 38L491 -14L399 95Q303 -13 191 -13Q110 -13 63 31T15 145ZM199 63Q274 63 350 150L274 241Q247 274 232 293Q167 263 137 230T106 152Q106 111 131 87T199 63ZM237 468Q237
416 264 373Q332 403 365 432T399 504Q399 530 380 549T330 569Q289 569 263 538T237 468Z" />
<glyph unicode="&apos;" glyph-name="quotesingle" horiz-adv-x="195" d="M100 400L116 609Q118 637 135 653T175 670Q199 670 215 654T232 614Q232 600 225 584L136 400H100Z" />
<glyph unicode="(" glyph-name="parenleft" horiz-adv-x="388" d="M286 -224Q193 -150 132 -44T70 192Q70 380 175 527T454 750L487 686Q330 610 245 480T160 190Q160 83 208 -9T334 -169L286 -224Z" />
<glyph unicode=")" glyph-name="parenright" horiz-adv-x="406" d="M-16 -224L-49 -160Q108 -84 193 45T278 335Q278 442 230 534T104 695L152 750Q245 676 306 570T368 334Q368 146 263 -1T-16 -224Z" />
<glyph unicode="*" glyph-name="asterisk" horiz-adv-x="428" d="M344 344T329 344T302 357T286 392L270 495L211 410Q193 383 166 383Q148 383 138 395T127 423Q127 450 161 467L255 516L153 547Q112 560 112 591Q112 608 124 620T152 632Q173 632 193 612L268
537L267 644Q266 668 277 683T306 699Q333 699 344 680T340 626L291 532L392 565Q403 569 417 569Q435 569 447 558T459 529Q459 506 442 496T397 490L293 507L356 421Q370 402 370 380Q370 365 357 355Z" />
<glyph unicode="+" glyph-name="plus" horiz-adv-x="438" d="M313 446L282 313H417L399 239H265L232 98H157L190 239H55L73 313H207L238 446H313Z" />
<glyph unicode="," glyph-name="comma" horiz-adv-x="227" d="M-40 -151L-59 -115Q3 -82 35 -49T70 4Q49 12 37 30T24 64Q24 93 44 113T94 134Q124 134 145 112T166 56Q166 0 110 -59T-40 -151Z" />
<glyph unicode="-" glyph-name="hyphen" horiz-adv-x="338" d="M49 236L69 324H315L295 236H49Z" />
<glyph unicode="." glyph-name="period" horiz-adv-x="227" d="M123 -8T94 -8T45 13T24 63T44 113T94 134T143 113T164 63T144 13Z" />
<glyph unicode="/" glyph-name="slash" horiz-adv-x="398" d="M-26 -210L-93 -172L431 743L498 704L-26 -210Z" />
<glyph unicode="0" glyph-name="zero" horiz-adv-x="579" d="M277 -8Q174 -8 115 58T55 224Q55 341 134 432T329 523Q431 523 491 457T551 291Q551 174 472 83T277 -8ZM279 66Q356 66 408 133T460 290Q460 359 423 403T327 448Q250 448 198 382T145 225Q145 156
182 111T279 66Z" />
<glyph unicode="1" glyph-name="one" horiz-adv-x="409" d="M9 1L26 73H144L226 428L116 401L113 476L292 521L331 503L231 73H350L334 1H9Z" />
<glyph unicode="2" glyph-name="two" horiz-adv-x="522" d="M14 0L4 48Q36 118 100 166T254 256Q331 291 368 317T405 380Q405 411 376 429T298 448Q232 448 198 416Q214 402 214 379T198 340T159 324Q135 324 118 341T100 384Q100 437 158 480T305 523Q390 523
443 484T496 385Q496 352 480 324T430 272T367 233T290 197Q211 162 172 135T107 71H365L385 156H459L423 0H14Z" />
<glyph unicode="3" glyph-name="three" horiz-adv-x="499" d="M199 -126Q112 -126 51 -82T-11 21Q-11 51 5 69T46 88Q69 88 84 73T99 37Q99 5 74 -6Q82 -23 116 -38T201 -53Q262 -53 300 -19T339 63Q339 113 299 144T190 176H165L183 247H206Q287 247 339 278T391
363Q391 403 360 426T276 450Q212 450 183 425Q200 413 200 389Q200 367 185 352T147 337T108 352T91 396Q91 448 146 485T280 523Q371 523 426 480T481 368Q481 308 436 265T306 208Q366 186 396 147T426 60Q426 -19 362 -72T199 -126Z" />
<glyph unicode="4" glyph-name="four" horiz-adv-x="561" d="M446 288L408 125H513L497 53H392L352 -120H266L306 53H17L8 93L433 530L488 479L143 125H323L353 255L446 288Z" />
<glyph unicode="5" glyph-name="five" horiz-adv-x="500" d="M189 -124Q107 -124 53 -88T-2 -4Q-2 24 15 42T57 60Q80 60 96 44T113 4Q113 -16 103 -25Q126 -48 192 -48Q264 -48 309 -6T355 99Q355 149 321 177T226 206Q172 206 120 181L70 212L172 515H496L478
433H219L163 262Q206 281 255 281Q336 281 389 234T442 105Q442 13 370 -55T189 -124Z" />
<glyph unicode="6" glyph-name="six" horiz-adv-x="544" d="M114 51Q56 109 56 219Q56 317 93 414T202 573Q282 643 385 643Q453 643 498 613T544 539Q544 513 528 496T487 478Q464 478 449 493T433 532Q433 548 442 556Q423 573 381 573Q308 573 248 517Q213
485 184 429T143 315Q168 352 214 379T318 406Q401 406 452 356T504 228Q504 131 435 62T262 -8Q171 -8 114 51ZM141 184Q141 134 172 101Q204 67 262 67Q325 67 370 113T415 221Q415 272 385 302T300 333Q233 333 187 289T141 184Z" />
<glyph unicode="7" glyph-name="seven" horiz-adv-x="504" d="M111 -123L42 -76L411 444H164L139 339H61L102 515H510L528 477L111 -123Z" />
<glyph unicode="8" glyph-name="eight" horiz-adv-x="531" d="M252 -8Q162 -8 105 42T47 162Q47 226 87 271T199 336Q119 383 119 466Q119 538 180 590T330 643T472 595T527 477Q527 419 491 377T391 318Q436 296 461 259T486 178Q486 101 421 47T252 -8ZM313
360Q367 360 404 392T441 471Q441 513 410 541T329 569Q275 569 239 537T203 458Q203 417 234 389T313 360ZM257 65Q320 65 359 100T399 187Q399 233 363 263T274 294Q213 294 173 258T132 171Q132 125 168 95T257 65Z" />
<glyph unicode="9" glyph-name="nine" horiz-adv-x="544" d="M181 -127Q113 -127 67 -97T21 -23Q21 3 37 20T78 38Q101 38 117 23T133 -15Q133 -30 123 -40Q149 -56 188 -56Q257 -56 316 -1Q353 32 382 88T422 201Q397 164 351 137T247 109Q164 109 113 159T61
287Q61 384 131 453T303 523Q394 523 451 464Q509 406 509 296Q509 200 475 110T381 -41Q295 -127 181 -127ZM424 332Q424 382 393 413Q359 449 303 449Q240 449 195 403T150 295Q150 243 180 213T266 183Q332 183 378 227T424 332Z" />
<glyph unicode=":" glyph-name="colon" horiz-adv-x="257" d="M198 256T169 256T120 276T100 325T120 374T169 395T218 375T238 325T218 276ZM138 -8T109 -8T60 12T40 62Q40 90 60 110T109 131T158 111T178 62T158 13Z" />
<glyph unicode=";" glyph-name="semicolon" horiz-adv-x="257" d="M198 256T169 256T120 276T100 325T120 374T169 395T218 375T238 325T218 276ZM-23 -148L-41 -112Q20 -80 50 -49T84 4Q63 12 52 29T40 63Q40 92 60 111T108 131Q138 131 158 110T179 54Q179 0
124 -57T-23 -148Z" />
<glyph unicode="&lt;" glyph-name="less" horiz-adv-x="451" d="M273 74L59 251L69 295L361 470L398 414L152 267L319 128L273 74Z" />
<glyph unicode="=" glyph-name="equal" horiz-adv-x="438" d="M92 320L109 395H426L409 320H92ZM52 149L69 224H387L370 149H52Z" />
<glyph unicode="&gt;" glyph-name="greater" horiz-adv-x="418" d="M87 76L51 133L297 280L129 418L176 472L390 295L379 251L87 76Z" />
<glyph unicode="?" glyph-name="question" horiz-adv-x="463" d="M139 185L163 341Q283 347 342 390T401 496Q401 541 371 566T291 592Q255 592 230 582T198 557Q220 542 220 516Q220 494 204 478T165 462Q141 462 125 480T108 526Q108 588 166 629T300 670Q383
670 438 625T494 501Q494 416 428 354T233 277L197 185H139ZM167 -8T140 -8T94 11T75 57T94 103T140 123T185 104T204 57T186 11Z" />
<glyph unicode="@" glyph-name="at" horiz-adv-x="809" d="M343 -177Q211 -177 127 -89T43 139Q43 335 167 474T467 613Q602 613 685 532T768 322Q768 201 711 117T567 33Q519 33 492 57T463 118Q414 33 333 33Q283 33 250 71T217 171Q217 261 270 328T398 395T502
316L525 389H605L548 163Q528 89 585 89Q638 89 678 158T718 320Q718 427 650 497T468 567Q312 567 203 441T93 137Q93 21 163 -55T345 -132Q428 -132 504 -91L525 -131Q439 -177 343 -177ZM372 107Q417 107 451 147T486 244Q486 279 468 298T415 318Q370 318 339
278T307 182Q307 149 324 128T372 107Z" />
<glyph unicode="A" glyph-name="A" horiz-adv-x="704" d="M-27 0L-8 81H52L346 578H268L286 658H617L598 578H524L588 81H657L638 0H410L428 80H502L485 219H223L142 80H229L210 0H-27ZM268 296H475L439 585L268 296Z" />
<glyph unicode="B" glyph-name="B" horiz-adv-x="596" d="M-1 0L18 81H93L208 577H123L141 658H366Q458 658 509 631Q547 611 568 577T590 500Q590 435 544 390T429 335Q480 320 513 282T547 196Q547 114 488 63Q441 22 361 8Q324 0 268 0H-1ZM251 373H315Q400
373 448 403T496 490Q496 543 447 564Q410 579 354 579H299L251 373ZM183 79H281Q315 79 348 86Q396 96 423 123Q453 153 453 201Q453 246 414 273T305 300H235L183 79Z" />
<glyph unicode="C" glyph-name="C" horiz-adv-x="679" d="M352 -11Q231 -11 150 66T69 277Q69 437 179 553T444 670Q547 670 613 619T680 505Q680 472 661 450T613 427Q588 427 571 444T553 485Q553 514 578 532Q568 553 531 570T441 587Q326 587 245 496T163
284Q163 187 216 130T360 72Q465 72 555 160L610 105Q503 -11 352 -11Z" />
<glyph unicode="D" glyph-name="D" horiz-adv-x="701" d="M-1 0L18 81H93L208 577H123L141 658H353Q524 658 616 566Q687 495 687 379Q687 227 583 121Q461 0 243 0H-1ZM183 81H257Q422 81 512 173Q592 253 592 374Q592 460 541 511Q475 577 344 577H299L183 81Z" />
<glyph unicode="E" glyph-name="E" horiz-adv-x="578" d="M-1 0L18 81H93L208 577H123L141 658H626L584 485H498L520 578H299L251 374H456L438 296H234L183 80H405L428 173H514L474 0H-1Z" />
<glyph unicode="F" glyph-name="F" horiz-adv-x="558" d="M-1 0L18 81H93L208 577H123L141 658H617L575 485H489L511 578H299L248 362H447L429 283H231L183 81H278L259 0H-1Z" />
<glyph unicode="G" glyph-name="G" horiz-adv-x="715" d="M510 0L520 67Q428 -11 320 -11Q215 -11 142 65T69 261Q69 428 183 549T463 670Q594 670 662 602Q701 564 701 518Q701 486 682 466T636 446T593 462T576 504Q576 527 596 545L589 553Q553 587 462 587Q336
587 250 493T163 266Q163 177 213 125T342 72Q451 72 526 129L555 252H379L397 329H664L586 0H510Z" />
<glyph unicode="H" glyph-name="H" horiz-adv-x="759" d="M-1 0L18 81H93L208 577H123L141 658H397L378 577H299L252 375H584L631 577H541L560 658H815L797 577H721L606 81H691L673 0H418L436 81H516L566 296H234L183 81H273L254 0H-1Z" />
<glyph unicode="I" glyph-name="I" horiz-adv-x="357" d="M2 0L21 81H103L218 577H129L148 658H410L392 577H309L194 81H283L264 0H2Z" />
<glyph unicode="J" glyph-name="J" horiz-adv-x="561" d="M205 -11Q130 -11 75 34T20 147Q20 187 41 212T95 237Q118 237 134 222T150 183Q150 164 139 150T107 132Q109 106 137 89T211 71Q280 71 318 120Q349 159 367 237L446 577H336L355 658H627L608 577H534L453
226Q429 119 381 63Q320 -11 205 -11Z" />
<glyph unicode="K" glyph-name="K" horiz-adv-x="662" d="M642 577L391 366L526 81H618L599 0H461L321 311L216 223L183 81H272L253 0H-1L18 81H93L208 577H123L141 658H389L371 579H299L239 324L530 579H454L471 658H729L711 577H642Z" />
<glyph unicode="L" glyph-name="L" horiz-adv-x="547" d="M-1 0L18 81H93L208 577H123L141 658H403L384 577H299L183 80H388L411 177H498L457 0H-1Z" />
<glyph unicode="M" glyph-name="M" horiz-adv-x="857" d="M-3 0L15 81H91L229 577H143L161 658H321L435 242L732 658H899L880 577H804L711 81H798L780 0H526L544 81H622L701 490L415 96H401L289 490L180 81H269L250 0H-3Z" />
<glyph unicode="N" glyph-name="N" horiz-adv-x="744" d="M538 -2L279 504L181 81H271L252 0H-1L18 81H93L208 577H123L141 658H302L539 192L628 577H539L558 658H809L791 577H717L582 -2H538Z" />
<glyph unicode="O" glyph-name="O" horiz-adv-x="731" d="M350 -12Q220 -12 145 68T69 276Q69 348 96 418T171 545T288 635T434 670Q564 670 639 590T715 382Q715 285 669 195T537 47T350 -12ZM358 71Q468 71 544 166T621 382Q621 471 571 529T426 587Q316 587
239 492T162 276Q162 187 213 129T358 71Z" />
<glyph unicode="P" glyph-name="P" horiz-adv-x="566" d="M-1 0L18 81H93L208 577H123L141 658H362Q404 658 446 648Q516 630 553 583T590 470Q590 368 515 299T311 229Q254 229 218 231L183 81H273L254 0H-1ZM322 309Q405 309 451 353T498 465Q498 546 413 570Q388
577 353 577H299L237 311Q283 309 322 309Z" />
<glyph unicode="Q" glyph-name="Q" horiz-adv-x="731" d="M715 382Q715 249 629 135T413 -5Q452 -78 538 -78Q574 -78 611 -59L638 -127Q584 -154 533 -154Q465 -154 408 -116T316 -10Q201 0 135 79T69 276Q69 348 96 418T171 545T288 635T434 670Q564 670 639
590T715 382ZM358 71Q468 71 544 166T621 382Q621 471 571 529T426 587Q316 587 239 492T162 276Q162 187 213 129T358 71Z" />
<glyph unicode="R" glyph-name="R" horiz-adv-x="604" d="M-1 0L18 81H93L208 577H123L141 658H349Q483 658 543 597Q590 552 590 478Q590 403 542 348T408 270L496 81H574L555 0H432L320 259H295Q270 259 226 261L183 81H270L251 0H-1ZM322 336Q403 336 450 374T498
472Q498 515 471 542Q436 577 346 577H298L243 339Q277 336 322 336Z" />
<glyph unicode="S" glyph-name="S" horiz-adv-x="558" d="M269 -12Q173 -12 105 36T36 144Q36 178 55 199T103 221Q127 221 144 204T161 164Q161 132 136 114Q174 67 274 67Q330 67 367 94T405 168Q405 204 378 231T293 291Q219 334 178 378T137 489Q137 563 199
616T360 670Q449 670 509 627T569 531Q569 497 551 476T504 454Q479 454 463 471T446 512Q446 539 468 558Q441 591 360 591Q302 591 267 564T232 497Q232 458 260 430T352 366Q421 327 461 283T501 176Q501 95 437 42T269 -12Z" />
<glyph unicode="T" glyph-name="T" horiz-adv-x="621" d="M136 0L155 81H236L352 579H206L183 475H96L138 658H692L650 475H564L587 579H442L327 81H418L400 0H136Z" />
<glyph unicode="U" glyph-name="U" horiz-adv-x="704" d="M326 -11Q227 -11 171 42T114 184Q114 220 126 271L197 577H113L132 658H384L366 577H287L216 267Q205 217 205 192Q205 134 238 103T338 71Q406 71 449 112T508 227L588 577H499L518 658H770L751 577H677L594
218Q568 106 504 48T326 -11Z" />
<glyph unicode="V" glyph-name="V" horiz-adv-x="683" d="M263 -9L162 577H94L112 658H346L328 577H260L324 147L582 577H507L525 658H764L746 577H687L315 -9H263Z" />
<glyph unicode="W" glyph-name="W" horiz-adv-x="961" d="M218 -8L176 577H105L124 658H366L348 577H265L285 163L529 586H572L645 161L847 577H767L785 658H1028L1009 577H946L647 -7H598L519 412L266 -7L218 -8Z" />
<glyph unicode="X" glyph-name="X" horiz-adv-x="713" d="M-16 0L2 81H70L336 343L203 577H124L143 658H399L381 577H308L397 392L571 577H496L514 658H774L756 577H685L436 332L580 81H657L639 0H387L406 81H481L377 284L184 81H264L245 0H-16Z" />
<glyph unicode="Y" glyph-name="Y" horiz-adv-x="639" d="M125 0L144 81H228L271 261L157 577H91L110 658H342L324 577H251L333 327L535 577H463L482 658H723L705 577H642L357 244L319 81H409L391 0H125Z" />
<glyph unicode="Z" glyph-name="Z" horiz-adv-x="620" d="M19 0L13 48L521 582H232L207 475H123L166 658H654L660 610L151 76H456L481 183H565L522 0H19Z" />
<glyph unicode="[" glyph-name="bracketleft" horiz-adv-x="351" d="M1 -200L217 732H459L442 657H285L103 -124H260L243 -200H1Z" />
<glyph unicode="\" glyph-name="backslash" horiz-adv-x="331" d="M183 -203L117 730L193 737L259 -196L183 -203Z" />
<glyph unicode="]" glyph-name="bracketright" horiz-adv-x="351" d="M-86 -200L-68 -125H89L270 656H113L131 732H373L157 -200H-86Z" />
<glyph unicode="^" glyph-name="asciicircum" horiz-adv-x="448" d="M128 343L92 388L293 548L414 383L370 345L275 433L128 343Z" />
<glyph unicode="_" glyph-name="underscore" horiz-adv-x="530" d="M-74 -156L-54 -74H507L488 -156H-74Z" />
<glyph unicode="`" glyph-name="grave" horiz-adv-x="601" d="M392 491L276 590Q252 610 252 637Q252 657 265 670T297 684Q327 684 348 648L421 513L392 491Z" />
<glyph unicode="a" glyph-name="a" horiz-adv-x="568" d="M186 -8Q121 -8 80 39T39 164Q39 275 106 357T266 439Q313 439 348 410T395 337L423 433H505L429 126Q421 97 421 82Q421 52 447 52Q478 52 503 122L542 108Q507 -7 423 -7Q385 -7 363 17T340 80V85Q273
-8 186 -8ZM221 67Q285 67 330 125T375 256Q375 305 350 333T277 362Q215 362 173 306T130 174Q130 125 153 96T221 67Z" />
<glyph unicode="b" glyph-name="b" horiz-adv-x="532" d="M23 0L175 658H94L113 732H278L189 350Q216 389 254 414T334 439Q408 439 450 392T492 265Q492 153 425 73T263 -8Q215 -8 179 19T131 91L105 0H23ZM252 69Q314 69 358 124T402 253Q402 303 377 333T305
364Q242 364 195 306T148 174Q148 126 175 98T252 69Z" />
<glyph unicode="c" glyph-name="c" horiz-adv-x="474" d="M241 -8Q153 -8 96 43T38 183Q38 286 112 362T289 439Q358 439 402 403T447 318Q447 289 431 270T388 250Q367 250 352 265T337 303T355 341Q334 365 287 365Q224 365 175 316T126 188Q126 132 160 99T249
65Q324 65 394 119L392 39Q326 -8 241 -8Z" />
<glyph unicode="d" glyph-name="d" horiz-adv-x="569" d="M39 164Q39 276 106 357T265 439Q311 439 346 410T395 340L468 658H388L406 732H572L430 126Q423 93 423 82Q423 52 448 52Q478 52 505 122L544 108Q509 -7 425 -7Q386 -7 364 17T341 81V85Q277 -8 188
-8Q123 -8 81 39T39 164ZM223 67Q286 67 331 124T377 255Q377 305 351 333T277 362Q215 362 173 306T130 174Q130 126 154 97T223 67Z" />
<glyph unicode="e" glyph-name="e" horiz-adv-x="482" d="M431 188H123V173Q123 124 158 95T253 65Q322 65 395 104L378 22Q317 -8 235 -8T95 41T37 175Q37 284 107 361T273 439Q353 439 400 396T447 278Q447 236 431 188ZM273 366Q227 366 190 335T135 251H359Q365
269 365 288Q365 323 342 344T273 366Z" />
<glyph unicode="f" glyph-name="f" horiz-adv-x="323" d="M44 0L126 357H51L69 431H143L171 550Q192 641 240 689Q289 738 363 738Q404 738 426 719T449 673Q449 648 433 633T393 617Q371 617 356 630T338 663Q318 659 302 643Q273 614 255 541L230 431H343L324
357H213L131 0H44Z" />
<glyph unicode="g" glyph-name="g" horiz-adv-x="531" d="M185 -200Q141 -200 98 -185T34 -150Q9 -125 9 -94Q9 -68 24 -52T64 -35Q87 -35 102 -51T117 -89Q117 -104 111 -115Q137 -131 183 -131Q242 -131 278 -95Q308 -66 326 9L345 90Q285 5 197 5Q125 5 83
52T40 178Q40 285 105 362T268 439Q320 439 354 410T401 341L428 433H509L406 -11Q386 -101 343 -145Q287 -200 185 -200ZM233 80Q296 80 339 134T383 259Q383 307 355 334T279 362Q216 362 174 310T131 184Q131 136 159 108T233 80Z" />
<glyph unicode="h" glyph-name="h" horiz-adv-x="535" d="M23 0L175 658H94L113 732H278L188 347Q213 386 250 412T327 438Q378 438 412 405T446 316Q446 280 435 246L400 118Q395 96 395 84Q395 52 421 52Q452 52 477 122L516 108Q482 -7 399 -7Q356 -7 332 17T307
79Q307 99 314 127L350 258Q356 278 356 302Q356 330 338 347T290 365Q248 365 214 331T165 232L111 0H23Z" />
<glyph unicode="i" glyph-name="i" horiz-adv-x="307" d="M207 504Q183 504 166 521T149 562T166 603T207 620Q230 620 247 603T265 562T248 521T207 504ZM155 -7Q112 -7 89 16T65 80Q65 101 72 127L132 357H51L70 431H239L159 126Q152 102 152 82Q152 52 178
52Q210 52 237 122L276 108Q241 -7 155 -7Z" />
<glyph unicode="j" glyph-name="j" horiz-adv-x="282" d="M-28 -198Q-65 -198 -87 -180T-109 -136Q-109 -114 -94 -99T-56 -83Q-38 -83 -24 -94T-6 -121Q16 -115 30 -92Q54 -53 75 39L148 357H64L83 431H251L160 33Q128 -104 77 -155Q36 -198 -28 -198ZM244 504T220
504T179 521T162 562T179 603T220 620T261 603T278 562T261 521Z" />
<glyph unicode="k" glyph-name="k" horiz-adv-x="486" d="M111 0H23L175 658H94L113 732H278L160 226Q324 285 357 336Q330 352 330 382Q330 405 346 422T387 439Q412 439 429 422T446 375Q446 281 277 201L319 103Q332 72 341 62Q350 53 361 53Q386 53 407 133L447
120Q431 48 405 21T341 -7Q308 -7 285 12Q262 32 248 67L201 179Q191 175 172 169T149 160L111 0Z" />
<glyph unicode="l" glyph-name="l" horiz-adv-x="291" d="M139 -7Q96 -7 73 16T49 81Q49 94 55 126L179 658H98L117 732H283L143 127Q136 97 136 84Q136 52 162 52Q194 52 221 122L259 108Q224 -7 139 -7Z" />
<glyph unicode="m" glyph-name="m" horiz-adv-x="800" d="M41 0L131 357H51L70 431H224L200 330Q228 378 265 408T344 438Q391 438 420 409T453 331Q482 381 521 409T599 438Q648 438 679 405T711 316Q711 285 700 246L663 119Q657 93 657 84Q657 52 684 52Q715
52 740 122L779 108Q745 -7 662 -7Q619 -7 595 17T570 79Q570 100 577 128L613 254Q621 278 621 302Q621 331 604 348T562 365Q523 365 491 330T441 228L383 0H295L360 253Q367 286 367 304Q367 330 351 347T308 365Q269 365 236 330T186 229L129 0H41Z" />
<glyph unicode="n" glyph-name="n" horiz-adv-x="556" d="M418 -7Q375 -7 351 17T326 79Q326 100 333 128L370 258Q377 282 377 302Q377 330 359 347T312 365Q271 365 237 331T187 234L129 0H41L131 357H51L70 431H224L201 330Q228 377 268 407T350 438Q401 438
434 405T467 316Q467 285 456 246L419 119Q413 93 413 84Q413 52 440 52Q471 52 496 122L535 108Q501 -7 418 -7Z" />
<glyph unicode="o" glyph-name="o" horiz-adv-x="514" d="M232 -8Q142 -8 90 47T38 183Q38 285 108 362T282 439Q372 439 424 384T476 247Q476 146 406 69T232 -8ZM236 65Q299 65 343 118T388 248Q388 302 357 333T278 365Q215 365 171 312T126 183Q126 128 157
97T236 65Z" />
<glyph unicode="p" glyph-name="p" horiz-adv-x="553" d="M-68 -196L-49 -124H15L128 357H47L66 431H222L200 337Q268 439 357 439Q429 439 471 392T513 265Q513 153 446 73T283 -8Q237 -8 203 19T150 87L101 -124H185L166 -196H-68ZM272 69Q334 69 378 124T422
253Q422 303 397 333T326 364Q263 364 216 306T169 174Q169 126 196 98T272 69Z" />
<glyph unicode="q" glyph-name="q" horiz-adv-x="531" d="M193 -8Q121 -8 80 39T39 166Q39 277 107 358T270 439Q317 439 352 411T400 343L426 431H507L380 -122H468L449 -196H277L340 76Q277 -8 193 -8ZM226 67Q291 67 336 125T382 256Q382 305 356 333T282 362Q219
362 175 306T130 175Q130 127 155 97T226 67Z" />
<glyph unicode="r" glyph-name="r" horiz-adv-x="401" d="M41 0L131 357H51L70 431H224L196 310Q276 438 346 438Q373 438 391 421T410 378Q410 353 392 335T350 317Q328 317 312 329T292 361Q263 348 228 302T177 193L129 0H41Z" />
<glyph unicode="s" glyph-name="s" horiz-adv-x="433" d="M204 -8Q101 -8 48 47Q21 74 21 104Q21 128 35 144T72 160Q93 160 106 146T120 112Q120 96 110 84Q114 80 126 73Q160 56 206 56Q242 56 265 70T289 109Q289 126 274 140T245 162T198 184Q170 196 153
206T117 231T89 265T80 310Q80 364 124 401T246 439Q337 439 383 391Q408 366 408 335Q408 311 394 296T358 280Q338 280 324 294T309 328Q309 341 318 356Q310 361 303 364Q278 374 245 374Q211 374 189 361T166 325Q166 310 181 296T210 273T259 250Q314 225
344 197T375 124Q375 61 329 27T204 -8Z" />
<glyph unicode="t" glyph-name="t" horiz-adv-x="352" d="M348 357H217L162 136Q156 114 156 98Q156 61 190 61Q219 61 276 99L307 57Q234 -7 162 -7Q120 -7 94 16T67 84Q67 101 74 136L129 357H51L68 431H147L172 529L268 562L235 431H367L348 357Z" />
<glyph unicode="u" glyph-name="u" horiz-adv-x="557" d="M67 431H234L168 170Q162 142 162 127Q162 99 178 83T222 66Q265 66 299 100T349 197L407 431H495L418 126Q411 94 411 82Q411 52 436 52Q466 52 493 122L532 108Q497 -7 413 -7Q375 -7 353 17T330 82V91Q303
45 265 19T184 -8Q137 -8 105 23T72 106Q72 136 82 178L128 357H48L67 431Z" />
<glyph unicode="v" glyph-name="v" horiz-adv-x="483" d="M166 -12L97 357H22L41 431H173L223 88Q347 222 373 322Q331 337 331 379Q331 404 348 421T391 439Q420 439 438 418T457 362Q457 295 394 195T223 -12H166Z" />
<glyph unicode="w" glyph-name="w" horiz-adv-x="685" d="M139 -12L102 357H23L42 431H177L196 104L349 382H399L457 96Q564 260 572 326Q554 330 541 344T528 381Q528 405 544 422T586 439Q616 439 634 419T653 363Q653 255 461 -12H409L352 251L197 -12H139Z" />
<glyph unicode="x" glyph-name="x" horiz-adv-x="531" d="M74 -7Q42 -7 23 10T3 54Q3 76 18 91T56 107Q89 107 103 75Q127 80 174 147L221 214L164 357H79L98 431H221L274 282L310 338Q373 439 444 439Q475 439 495 421T515 378Q515 356 500 341T462 325Q427 325
415 355Q390 348 350 288L307 225L355 109Q370 74 378 64T395 54Q418 54 440 123L479 111Q451 -7 377 -7Q345 -7 324 11T285 74L254 157L211 91Q149 -7 74 -7Z" />
<glyph unicode="y" glyph-name="y" horiz-adv-x="490" d="M-11 -200Q-43 -200 -64 -182T-86 -137Q-86 -113 -71 -97T-32 -81Q-13 -81 1 -93T20 -124Q59 -122 174 17L104 357H28L47 431H179L237 87Q365 256 382 323Q340 338 340 381Q340 405 357 422T399 439Q430
439 448 418T466 361Q466 262 267 16Q160 -115 102 -157T-11 -200Z" />
<glyph unicode="z" glyph-name="z" horiz-adv-x="475" d="M35 -8L3 39L346 362H163L143 281H68L105 431H440L464 380L135 71Q170 82 199 82Q220 82 258 73T311 64Q344 64 359 81T392 148L429 140Q413 69 388 31T306 -8Q286 -8 227 5T143 18Q87 18 35 -8Z" />
<glyph unicode="{" glyph-name="braceleft" horiz-adv-x="354" d="M227 -215Q129 -203 78 -160T27 -54Q27 21 118 91Q184 142 184 172Q184 193 160 210T88 227H57L76 305H108Q167 305 197 328T227 384Q227 414 194 465Q154 529 154 576Q154 649 223 696T426 746L420
687Q327 680 282 650T236 581Q236 547 273 488Q313 425 313 387Q313 339 278 307T174 265Q221 256 246 231T271 169Q271 121 189 55Q109 -7 109 -52Q109 -129 241 -157L227 -215Z" />
<glyph unicode="|" glyph-name="bar" horiz-adv-x="276" d="M100 -200V732H176V-200H100Z" />
<glyph unicode="}" glyph-name="braceright" horiz-adv-x="354" d="M-49 -215L-43 -155Q50 -148 95 -119T141 -49Q141 -15 104 44Q64 107 64 145Q64 193 99 225T203 267Q156 275 131 301T106 362Q106 412 188 476Q268 538 268 583Q268 661 136 688L150 747Q248
735 299 691T350 585Q350 509 259 441Q193 390 193 360Q193 338 217 322T289 305H320L301 227H269Q210 227 180 204T150 148Q150 118 183 67Q223 1 223 -44Q223 -117 154 -164T-49 -215Z" />
<glyph unicode="~" glyph-name="asciitilde" horiz-adv-x="472" d="M313 185Q270 185 229 226Q198 256 180 256Q144 256 114 191L61 211Q76 270 110 306T183 342Q225 342 269 300Q299 270 317 270Q336 270 351 285T382 336L436 315Q419 254 385 220T313 185Z" />
</font>
</defs>
</svg>
