<?xml version="1.0" standalone="no"?> <!DOCTYPE svg PUBLIC "-//W3C//DTD SVG 1.0//EN" "http://www.w3.org/TR/2001/REC-SVG-20010904/DTD/svg10.dtd" > <svg xmlns="http://www.w3.org/2000/svg" width="100%" height="100%">
<defs >
<font id="archerpro-semibold" horiz-adv-x="435" ><font-face
    font-family="ArcherPro Semibold"
    units-per-em="1000"
    panose-1="2 0 0 0 0 0 0 0 0 0"
    ascent="800"
    descent="-200"
    alphabetic="0" />
<missing-glyph horiz-adv-x="618" d="M579 545V128V121Q579 92 569 64Q540 1 467 1H303L137 -177V14Q110 21 87 38Q37 76 37 137V536Q42 569 55 594Q89 652 150 652H473Q505 652 526 642Q579 620 579 545ZM524 109V524Q524 582 499 599Q491 604 482 604Q477 604
474 603H178Q121 603 97 558Q88 538 88 513V136Q88 106 102 89T137 67Q155 63 166 63Q172 63 186 65V-54L284 49H437Q497 49 518 79Q524 89 524 104V109ZM461 400V395Q461 374 451 359T431 337T398 321T371 308Q352 298 352 284Q352 281 352 274T353 262H249Q248
267 248 279Q248 329 288 352Q302 355 321 366T341 392Q341 418 308 418Q291 418 282 408T272 382V375H154Q158 430 196 467T311 505Q386 505 423 473T461 400ZM353 131H249V226H353V131Z" />
<glyph unicode=" " glyph-name="space" horiz-adv-x="224" />
<glyph unicode="!" glyph-name="exclam" horiz-adv-x="264" d="M109 189L77 657H187L156 189H109ZM159 -8T132 -8T87 11T68 57T86 103T132 123T178 104T197 57T178 11Z" />
<glyph unicode="&quot;" glyph-name="quotedbl" horiz-adv-x="374" d="M263 400L225 589Q218 625 234 647T281 670T327 648T337 589L298 400H263ZM74 400L36 589Q29 625 45 647T92 670T138 648T148 589L109 400H74Z" />
<glyph unicode="#" glyph-name="numbersign" horiz-adv-x="544" d="M57 325V396H155L174 515H252L233 396H351L370 515H449L430 396H519V325H419L399 198H488V127H388L369 0H291L310 127H192L172 0H94L113 127H25V198H124L144 325H57ZM221 327L200 196H322L343 327H221Z" />
<glyph unicode="$" glyph-name="dollar" horiz-adv-x="493" d="M309 578L304 511Q363 503 403 477T443 409Q443 385 429 370T393 355Q369 355 354 369T339 406Q339 423 344 433Q330 441 292 446L280 298Q316 288 341 278T393 251T435 209T449 150Q449 78 395 40T256
0L247 -106L182 -101L190 4Q127 13 83 41T38 115Q38 139 52 155T90 171T128 157T144 120Q144 105 138 91Q153 79 202 70L215 231Q143 250 102 281T60 371Q60 431 109 470T238 514L244 583L309 578ZM365 143Q365 170 342 186T271 217L259 67Q305 69 335 88T365 143ZM144
378Q144 354 163 340T224 313L236 448Q195 445 170 427T144 378Z" />
<glyph unicode="%" glyph-name="percent" horiz-adv-x="669" d="M176 273Q123 273 86 310T49 399T86 487T176 524Q228 524 265 488T302 399T265 310T176 273ZM176 331Q202 331 219 350T236 397Q236 426 219 445T176 465Q149 465 132 446T115 397Q115 369 132 350T176
331ZM130 -19L92 16Q139 65 316 268L536 526L575 492Q510 425 348 239L130 -19ZM494 242Q546 242 583 206T620 117T583 29T494 -8Q441 -8 404 28T367 117T404 205T494 242ZM494 184Q467 184 450 165T433 116T450 68T494 49Q520 49 537 68T555 116T538 164T494 184Z"
/>
<glyph unicode="&amp;" glyph-name="ampersand" horiz-adv-x="642" d="M616 269H558Q532 185 498 133Q560 76 599 45L548 -12L449 75Q363 -9 243 -9Q141 -9 86 38T30 159Q30 268 164 341Q124 385 111 417T98 485Q98 543 143 590T265 638Q336 638 380 600T425 499Q425
447 391 407T285 328Q314 299 333 282L443 181Q468 218 486 271H431V342H616V269ZM243 65Q328 65 393 124L280 229Q244 261 211 294Q119 240 119 164Q119 125 152 95T243 65ZM186 483Q186 435 238 373Q291 403 314 431T337 499Q337 528 317 548T265 568Q230 568
208 543T186 483Z" />
<glyph unicode="&apos;" glyph-name="quotesingle" horiz-adv-x="185" d="M74 400L36 589Q29 625 45 647T92 670T138 648T148 589L109 400H74Z" />
<glyph unicode="(" glyph-name="parenleft" horiz-adv-x="396" d="M365 -227Q245 -161 158 -33T70 261Q70 373 116 474T225 641T365 748L407 685Q297 616 229 510T160 261Q160 117 228 11T407 -164L365 -227Z" />
<glyph unicode=")" glyph-name="parenright" horiz-adv-x="396" d="M31 -227L-11 -164Q99 -95 167 11T236 261Q236 404 168 510T-11 685L31 748Q107 706 170 641T280 475T326 261Q326 96 239 -32T31 -227Z" />
<glyph unicode="*" glyph-name="asterisk" horiz-adv-x="428" d="M340 518L233 511L314 443Q336 425 338 404T321 368T282 363T253 398L214 495L175 398Q165 372 146 363T107 368T89 403T114 443L195 511L88 518Q60 520 46 536T39 576Q46 597 67 600T112 590L202
535L176 639Q169 665 179 684T214 703T248 684T252 639L226 535L316 590Q339 604 360 601T389 576Q396 553 382 537T340 518Z" />
<glyph unicode="+" glyph-name="plus" horiz-adv-x="436" d="M180 104V239H46V313H180V448H256V313H390V239H256V104H180Z" />
<glyph unicode="," glyph-name="comma" horiz-adv-x="227" d="M27 -160L3 -127Q49 -91 73 -57T98 0Q73 6 58 24T42 68Q42 94 62 114T111 134Q143 134 164 111T185 47Q185 -3 147 -59T27 -160Z" />
<glyph unicode="-" glyph-name="hyphen" horiz-adv-x="334" d="M38 236V324H296V236H38Z" />
<glyph unicode="." glyph-name="period" horiz-adv-x="227" d="M143 -8T114 -8T65 13T44 63T64 113T114 134T163 113T184 63T164 13Z" />
<glyph unicode="/" glyph-name="slash" horiz-adv-x="484" d="M63 -211L-10 -178L399 744L472 712L63 -211Z" />
<glyph unicode="0" glyph-name="zero" horiz-adv-x="566" d="M387 -8T283 -8T112 68T44 258T111 447T283 523T454 448T522 258Q522 143 455 68ZM217 66T283 66T391 120T433 258Q433 341 391 395T283 450T175 396T133 258T175 120Z" />
<glyph unicode="1" glyph-name="one" horiz-adv-x="421" d="M60 0V72H180V425L76 399L56 472L227 517H267V72H385V0H60Z" />
<glyph unicode="2" glyph-name="two" horiz-adv-x="510" d="M244 449Q172 449 145 414Q164 398 164 376Q164 353 148 336T108 319Q83 319 66 338T49 388Q49 415 70 444Q95 478 143 500T248 523Q337 523 389 479T442 374Q442 316 404 278T287 192Q178 128 143 71H385V156H459V0H47L34
43Q61 107 112 155T239 250Q270 270 285 280T320 307T346 338T354 372Q354 406 324 427T244 449Z" />
<glyph unicode="3" glyph-name="three" horiz-adv-x="497" d="M28 14Q28 42 45 61T88 81Q110 81 126 65T142 27Q142 0 122 -15Q160 -53 239 -53Q297 -53 334 -22T371 57Q371 126 301 157Q257 176 192 176H166V247H195Q261 247 307 273Q365 306 365 359Q365 402
332 425T245 449Q175 449 145 417Q167 402 167 376Q167 353 151 338T111 322Q87 322 70 341T52 390Q52 418 71 446Q94 480 139 501T249 523Q338 523 395 477T452 362Q452 324 430 291T371 237Q341 219 307 215Q338 209 367 193Q458 146 458 54Q458 -27 396 -76T238
-126Q175 -126 124 -104T47 -45Q28 -16 28 14Z" />
<glyph unicode="4" glyph-name="four" horiz-adv-x="535" d="M326 -120V53H38L20 93L348 530L411 480L145 125H326V255L409 288V125H515V53H409V-120H326Z" />
<glyph unicode="5" glyph-name="five" horiz-adv-x="498" d="M39 -9Q39 19 56 38T99 57Q122 57 138 41T155 2Q155 -18 140 -33Q171 -51 230 -51Q293 -51 331 -14T369 81Q369 137 332 171T229 206Q160 206 100 177L61 199L99 515H422V434H165L145 267Q187 280 240
280Q335 280 395 226T456 81Q456 -9 393 -67T235 -126Q124 -126 70 -75Q39 -46 39 -9Z" />
<glyph unicode="6" glyph-name="six" horiz-adv-x="546" d="M302 570Q238 570 187 502T132 314Q152 349 196 372T290 396Q382 396 443 340T504 200Q504 112 440 52T279 -8Q181 -8 119 55Q49 126 49 275Q49 453 125 548T310 644Q399 644 449 594Q476 569 476 533Q476
505 458 487T417 469Q391 469 375 485T358 525Q358 542 366 553Q343 570 302 570ZM279 65Q340 65 378 103T416 200Q416 252 380 287T284 322Q223 322 182 284T141 192Q141 139 180 103Q220 65 279 65Z" />
<glyph unicode="7" glyph-name="seven" horiz-adv-x="495" d="M173 -122L99 -85L358 444H110V339H32V515H443L463 472L173 -122Z" />
<glyph unicode="8" glyph-name="eight" horiz-adv-x="519" d="M356 -8T259 -8T102 44T41 172Q41 223 73 264T157 325Q111 347 83 386T55 467Q55 543 113 593T259 643Q347 643 405 593T464 467Q464 424 436 386T361 325Q413 305 445 264T478 172Q478 95 417 44ZM211
357T259 357T341 388T375 462Q375 509 343 539T259 569Q209 569 177 539T144 462Q144 418 177 388ZM259 66Q316 66 352 98T388 178T352 258T259 291Q203 291 167 259T131 178T167 98T259 66Z" />
<glyph unicode="9" glyph-name="nine" horiz-adv-x="546" d="M232 -125Q140 -125 91 -74Q66 -46 66 -15Q66 13 84 31T125 50Q151 50 167 34T184 -7Q184 -22 175 -35Q199 -51 240 -51Q307 -51 358 15T413 198Q392 164 349 142T255 119Q163 119 102 175T41 314Q41
403 105 463T266 523Q365 523 423 463Q497 391 497 239Q497 61 420 -32T232 -125ZM365 412Q325 450 266 450Q205 450 167 412T129 314Q129 262 165 228T261 193Q322 193 363 231T404 322Q404 376 365 412Z" />
<glyph unicode=":" glyph-name="colon" horiz-adv-x="246" d="M124 257Q95 257 75 277T55 327T75 376T124 396Q152 396 172 376T192 327T172 278T124 257ZM124 -8Q95 -8 75 12T55 62T75 111T124 131Q152 131 172 111T192 62T172 13T124 -8Z" />
<glyph unicode=";" glyph-name="semicolon" horiz-adv-x="246" d="M124 257Q95 257 75 277T55 327T75 376T124 396Q152 396 172 376T192 327T172 278T124 257ZM39 -157L15 -125Q105 -54 109 0Q85 6 70 24T54 66Q54 92 74 111T121 131Q152 131 173 109T194 46Q194
-2 157 -57T39 -157Z" />
<glyph unicode="&lt;" glyph-name="less" horiz-adv-x="404" d="M299 74L45 251V295L299 472L340 416L135 273L340 131L299 74Z" />
<glyph unicode="=" glyph-name="equal" horiz-adv-x="436" d="M46 321V395H390V321H46ZM46 149V223H390V149H46Z" />
<glyph unicode="&gt;" glyph-name="greater" horiz-adv-x="404" d="M105 74L64 131L269 273L64 416L105 472L359 295V251L105 74Z" />
<glyph unicode="?" glyph-name="question" horiz-adv-x="464" d="M22 523Q22 561 48 595Q73 629 119 649T220 670Q316 670 374 619T433 489Q433 419 385 367T248 295L238 189H183L165 351Q253 365 296 401T340 487Q340 534 307 563T217 593Q145 593 116 553Q114
551 114 550Q126 546 133 534T140 508Q140 484 126 469T88 453Q62 453 42 472T22 523ZM211 -8Q185 -8 166 11T147 57T166 103T211 123Q238 123 257 104T276 57T257 11T211 -8Z" />
<glyph unicode="@" glyph-name="at" horiz-adv-x="809" d="M343 -177Q211 -177 127 -89T43 139Q43 335 167 474T467 613Q602 613 685 532T768 322Q768 201 711 117T567 33Q519 33 492 57T463 118Q414 33 333 33Q283 33 250 71T217 171Q217 261 270 328T398 395T502
316L525 389H605L548 163Q528 89 585 89Q638 89 678 158T718 320Q718 427 650 497T468 567Q312 567 203 441T93 137Q93 21 163 -55T345 -132Q428 -132 504 -91L525 -131Q439 -177 343 -177ZM372 107Q417 107 451 147T486 244Q486 279 468 298T415 318Q370 318 339
278T307 182Q307 149 324 128T372 107Z" />
<glyph unicode="A" glyph-name="A" horiz-adv-x="702" d="M16 0V81H76L259 578H186V658H516V578H442L625 81H686V0H452V80H528L479 219H219L170 80H250V0H16ZM245 295H453L349 582L245 295Z" />
<glyph unicode="B" glyph-name="B" horiz-adv-x="601" d="M43 0V81H123V577H43V658H306Q419 658 477 611T536 489Q536 433 504 394T419 338Q555 300 555 182Q555 101 492 51T318 0H43ZM213 79H320Q387 79 425 108T463 188Q463 241 422 269T307 298H213V79ZM213
371H301Q370 371 407 400T444 479Q444 526 408 552T304 579H213V371Z" />
<glyph unicode="C" glyph-name="C" horiz-adv-x="702" d="M394 -12Q244 -12 148 85T52 327Q52 475 151 572T391 670Q495 670 568 621T641 509Q641 478 623 458T577 438Q549 438 531 454T513 498Q513 523 530 536Q514 556 477 571T389 587Q284 587 215 512T145
328Q145 222 215 147T394 71T591 157L648 94Q599 43 533 16T394 -12Z" />
<glyph unicode="D" glyph-name="D" horiz-adv-x="721" d="M43 0V81H123V577H43V658H290Q465 658 567 571T669 335Q669 183 568 92T284 0H43ZM214 81H296Q432 81 504 149T576 336Q576 449 499 513T288 577H214V81Z" />
<glyph unicode="E" glyph-name="E" horiz-adv-x="583" d="M43 0V81H123V577H43V658H526V486H440V578H214V374H422V296H214V80H440V172H527V0H43Z" />
<glyph unicode="F" glyph-name="F" horiz-adv-x="564" d="M43 0V81H123V577H43V658H520V486H433V578H214V362H418V283H214V81H303V0H43Z" />
<glyph unicode="G" glyph-name="G" horiz-adv-x="732" d="M370 -12Q241 -12 147 81T52 325T152 573T395 670Q502 670 573 622T645 515Q645 484 628 465T583 445Q555 445 537 462T519 506Q519 529 532 542Q485 587 392 587Q284 587 215 513T145 326T214 141T382
69Q481 69 562 123V252H387V329H651V0H564V53Q477 -12 370 -12Z" />
<glyph unicode="H" glyph-name="H" horiz-adv-x="767" d="M43 0V81H123V577H43V658H298V577H214V375H553V577H469V658H724V577H644V81H724V0H469V81H553V296H214V81H298V0H43Z" />
<glyph unicode="I" glyph-name="I" horiz-adv-x="348" d="M43 0V81H129V577H43V658H304V577H219V81H304V0H43Z" />
<glyph unicode="J" glyph-name="J" horiz-adv-x="534" d="M223 -12Q142 -12 86 35T29 151Q29 187 48 209T96 232Q120 232 137 215T154 174Q154 138 124 126Q129 105 155 88T223 71Q273 71 302 100Q337 136 337 221V577H236V658H502V577H426V220Q426 100 368 42Q312
-12 223 -12Z" />
<glyph unicode="K" glyph-name="K" horiz-adv-x="677" d="M43 0V81H123V577H43V658H298V579H214V319L472 579H389V658H659V577H586L385 378L577 81H661V0H519L317 317L214 215V81H298V0H43Z" />
<glyph unicode="L" glyph-name="L" horiz-adv-x="552" d="M43 0V81H123V577H43V658H303V577H214V80H422V177H509V0H43Z" />
<glyph unicode="M" glyph-name="M" horiz-adv-x="874" d="M38 0V81H120L143 577H57V658H226L436 245L646 658H813V577H728L750 81H833V0H579V81H660L645 490L443 100H426L224 490L209 81H290V0H38Z" />
<glyph unicode="N" glyph-name="N" horiz-adv-x="755" d="M595 -3L211 497V81H295V0H43V81H123V577H43V658H201L557 194V577H473V658H722V577H645V-2L595 -3Z" />
<glyph unicode="O" glyph-name="O" horiz-adv-x="773" d="M384 -12Q240 -12 146 86T52 329Q52 475 147 572T389 670Q533 670 627 572T721 329Q721 183 626 86T384 -12ZM282 72T387 72T560 145T628 329T560 513T387 586T214 513T145 329T213 145Z" />
<glyph unicode="P" glyph-name="P" horiz-adv-x="581" d="M43 0V81H123V577H43V658H301Q408 658 477 601T547 447Q547 343 479 286T295 229Q248 229 214 231V81H300V0H43ZM301 309Q372 309 413 346T454 447Q454 506 411 541T299 577H214V311Q248 309 301 309Z" />
<glyph unicode="Q" glyph-name="Q" horiz-adv-x="773" d="M646 -138Q614 -138 579 -126T528 -106T472 -71T431 -43Q392 -18 338 -8Q228 10 151 82Q105 125 79 189T52 329Q52 475 147 572T389 670Q533 670 627 572T721 329Q721 208 656 123T489 11Q511 4 537 -12Q572
-34 593 -43T640 -52Q682 -52 725 -22L769 -94Q722 -138 646 -138ZM387 72Q492 72 560 145T628 329T560 513T387 586T214 513T145 329Q145 213 221 137Q288 72 387 72Z" />
<glyph unicode="R" glyph-name="R" horiz-adv-x="619" d="M43 0V81H123V577H43V658H295Q408 658 475 607T543 464Q543 400 507 353T409 284L531 81H608V0H469L320 261Q294 259 281 259Q248 259 214 261V81H298V0H43ZM287 337Q359 337 404 370T450 461Q450 518
407 547T290 577H214V339Q248 337 287 337Z" />
<glyph unicode="S" glyph-name="S" horiz-adv-x="552" d="M274 -12Q180 -12 115 32T49 132Q49 163 65 182T109 201Q135 201 152 185T169 146Q169 123 156 103Q196 68 276 68Q336 68 371 96T407 172Q407 214 374 239T277 289Q172 328 123 369T74 490Q74 568 131
619T283 670Q369 670 428 630T488 535Q488 505 472 488T430 470Q403 470 386 487T369 528Q369 546 380 563Q348 591 282 591Q228 591 197 565T165 497Q165 454 198 429T299 378Q349 360 379 345T439 307T483 253T497 179Q497 91 435 40T274 -12Z" />
<glyph unicode="T" glyph-name="T" horiz-adv-x="625" d="M181 0V81H267V580H120V475H34V658H591V475H505V580H358V81H444V0H181Z" />
<glyph unicode="U" glyph-name="U" horiz-adv-x="702" d="M351 -12Q237 -12 173 51T109 232V577H31V658H282V577H199V238Q199 156 238 114T351 71Q425 71 465 112T505 235V577H422V658H672V577H593V235Q593 115 529 52T351 -12Z" />
<glyph unicode="V" glyph-name="V" horiz-adv-x="693" d="M320 -9L79 577H16V658H254V577H182L348 150L515 577H439V658H677V577H614L372 -9H320Z" />
<glyph unicode="W" glyph-name="W" horiz-adv-x="1003" d="M279 -9L95 577H22V658H277V577H193L318 165L482 586H531L695 165L815 577H728V658H983V577H909L728 -9H677L505 424L331 -9H279Z" />
<glyph unicode="X" glyph-name="X" horiz-adv-x="715" d="M33 0V81H103L306 338L119 577H46V658H294V579H223L361 389L500 579H423V658H672V577H599L412 339L612 81H682V0H437V79H507L357 288L202 79H278V0H33Z" />
<glyph unicode="Y" glyph-name="Y" horiz-adv-x="643" d="M187 0V81H276V258L85 577H16V658H249V577H186L323 335L461 577H394V658H627V577H558L367 259V81H456V0H187Z" />
<glyph unicode="Z" glyph-name="Z" horiz-adv-x="614" d="M44 0V48L434 582H145V475H65V658H563V610L173 76H490V183H569V0H44Z" />
<glyph unicode="[" glyph-name="bracketleft" horiz-adv-x="365" d="M97 -200V732H339V656H182V-123H339V-200H97Z" />
<glyph unicode="\" glyph-name="backslash" horiz-adv-x="484" d="M421 -211L12 712L85 744L494 -178L421 -211Z" />
<glyph unicode="]" glyph-name="bracketright" horiz-adv-x="365" d="M26 -200V-123H183V656H26V732H268V-200H26Z" />
<glyph unicode="^" glyph-name="asciicircum" horiz-adv-x="452" d="M102 342L62 388L226 547L390 388L350 342L226 429L102 342Z" />
<glyph unicode="_" glyph-name="underscore" horiz-adv-x="549" d="M-7 -156V-74H556V-156H-7Z" />
<glyph unicode="`" glyph-name="grave" horiz-adv-x="340" d="M238 498L88 593Q55 615 55 642Q55 662 68 675T99 688Q124 688 147 662L263 526L238 498Z" />
<glyph unicode="a" glyph-name="a" horiz-adv-x="499" d="M182 -8Q121 -8 81 25T41 115Q41 174 88 209T210 245Q272 245 328 228V277Q328 313 309 337Q282 370 219 370Q187 370 163 357Q168 345 168 333Q168 312 154 298T118 284T82 298T67 335Q67 377 111 408T233
439Q332 439 378 385Q411 346 411 286V72H478V0H330V52Q266 -8 182 -8ZM207 57Q270 57 328 108V178Q274 193 223 193Q178 193 153 174T128 122Q128 92 149 75T207 57Z" />
<glyph unicode="b" glyph-name="b" horiz-adv-x="546" d="M293 -8Q217 -8 156 43L134 -1H78V658H10V732H164V378Q225 439 302 439Q388 439 447 377T506 216Q506 122 445 57T293 -8ZM283 67Q340 67 378 107T417 216Q417 283 380 323T285 364Q219 364 164 309V108Q219
67 283 67Z" />
<glyph unicode="c" glyph-name="c" horiz-adv-x="484" d="M272 -8Q171 -8 105 55T39 217Q39 306 101 372T255 439Q332 439 386 397T440 303Q440 275 423 257T379 239Q357 239 341 254T325 293T343 329Q335 345 310 356T255 368Q206 368 166 328T126 215Q126 149
169 108T280 66Q349 66 428 112L420 33Q356 -8 272 -8Z" />
<glyph unicode="d" glyph-name="d" horiz-adv-x="555" d="M242 -8Q155 -8 98 54T40 213Q40 307 99 373T250 439Q328 439 378 392V658H304V732H464V72H531V0H379V55Q320 -8 242 -8ZM258 67Q323 67 378 122V322Q324 364 260 364Q204 364 167 323T128 214Q128 148
165 108T258 67Z" />
<glyph unicode="e" glyph-name="e" horiz-adv-x="491" d="M451 188H128Q137 128 178 97T284 66Q356 66 437 112L430 33Q364 -8 271 -8Q167 -8 103 53T38 214Q38 308 97 373T252 439T401 380T455 234Q455 214 451 188ZM250 368Q204 368 170 338T128 252H369Q366
305 335 336T250 368Z" />
<glyph unicode="f" glyph-name="f" horiz-adv-x="328" d="M303 623Q262 623 246 664Q230 660 217 645Q195 615 195 557V431H307V357H195V72H279V0H43V72H110V357H35V431H110V541Q110 649 160 698Q202 740 267 740Q305 740 329 723T353 676Q353 652 339 638T303 623Z" />
<glyph unicode="g" glyph-name="g" horiz-adv-x="556" d="M462 357V-9Q462 -88 422 -136Q370 -200 259 -200Q153 -200 103 -150Q80 -127 80 -98Q80 -75 95 -59T134 -42Q156 -42 170 -56T184 -91Q184 -104 178 -115Q213 -129 254 -129Q321 -129 354 -88Q376 -60
376 -9V66Q317 5 241 5Q156 5 98 65T40 219Q40 310 99 374T248 439Q324 439 380 388V431H529V357H462ZM261 364Q202 364 165 324T128 220T164 118T259 79Q324 79 376 133V322Q325 364 261 364Z" />
<glyph unicode="h" glyph-name="h" horiz-adv-x="560" d="M96 658H29V732H182V359Q257 439 335 439Q408 439 443 393Q472 355 472 294V72H539V0H322V72H386V275Q386 314 369 336Q350 360 310 360Q245 360 182 295V72H246V0H29V72H96V658Z" />
<glyph unicode="i" glyph-name="i" horiz-adv-x="296" d="M141 522Q115 522 97 540T79 585Q79 610 97 628T142 647Q167 647 185 629T204 585Q204 559 185 541T141 522ZM38 0V72H108V357H38V431H194V72H263V0H38Z" />
<glyph unicode="j" glyph-name="j" horiz-adv-x="274" d="M-51 -129Q-51 -108 -36 -92T1 -76T37 -91T51 -129V-132Q91 -131 109 -78Q119 -45 119 2V357H37V431H205V9Q205 -62 183 -111Q145 -200 47 -200Q1 -200 -25 -179T-51 -129ZM147 522Q121 522 103 540T85
585Q85 610 103 628T148 647Q173 647 191 629T210 585Q210 559 191 541T147 522Z" />
<glyph unicode="k" glyph-name="k" horiz-adv-x="536" d="M29 0V72H96V658H29V732H182V225L338 361H265V431H513V357H435L315 254L438 74H513V0H387L252 206L182 146V71H245V0H29Z" />
<glyph unicode="l" glyph-name="l" horiz-adv-x="285" d="M30 0V72H100V658H30V732H186V72H255V0H30Z" />
<glyph unicode="m" glyph-name="m" horiz-adv-x="833" d="M37 0V72H104V357H37V431H186V356Q257 439 338 439Q409 439 443 390Q451 378 456 360Q535 439 608 439Q696 439 728 377Q745 341 745 295V72H812V0H595V72H659V276Q659 304 651 325Q636 360 590 360Q532
360 467 297V72H530V0H317V72H381V276Q381 307 374 325Q358 360 313 360Q255 360 189 296V72H252V0H37Z" />
<glyph unicode="n" glyph-name="n" horiz-adv-x="566" d="M186 431V356Q263 439 343 439Q420 439 456 384Q478 346 478 294V72H545V0H328V72H392V275Q392 307 382 326Q364 360 318 360Q254 360 189 295V72H253V0H37V72H104V357H37V431H186Z" />
<glyph unicode="o" glyph-name="o" horiz-adv-x="529" d="M265 -8Q164 -8 102 56T40 215T102 374T265 439T427 374T490 215Q490 122 427 57T265 -8ZM265 65Q325 65 363 107T401 215T363 323T265 366Q204 366 166 324T128 215T166 107T265 65Z" />
<glyph unicode="p" glyph-name="p" horiz-adv-x="557" d="M29 -196V-124H96V357H29V431H178V375Q240 439 316 439Q402 439 459 377T517 218Q517 124 458 58T308 -8Q238 -8 182 38V-124H259V-196H29ZM298 67Q354 67 391 108T428 217Q428 283 392 323T300 364Q237
364 182 309V108Q233 67 298 67Z" />
<glyph unicode="q" glyph-name="q" horiz-adv-x="532" d="M299 -196V-122H382V52Q318 -8 243 -8Q157 -8 99 54T40 215Q40 309 100 374T252 439Q326 439 389 388L411 433H467V-122H535V-196H299ZM260 67Q325 67 382 122V323Q327 364 262 364Q205 364 167 324T128
215Q128 148 165 108T260 67Z" />
<glyph unicode="r" glyph-name="r" horiz-adv-x="403" d="M320 439Q354 439 372 421T391 376Q391 353 375 336T336 318Q295 318 279 355Q255 348 230 324T189 268V72H268V0H37V72H104V357H37V431H186V333Q213 380 248 409T320 439Z" />
<glyph unicode="s" glyph-name="s" horiz-adv-x="446" d="M388 341Q388 318 375 304T342 290Q319 290 305 303T290 338Q290 351 294 360Q266 373 225 373Q186 373 163 357T140 318Q140 295 163 283T242 255Q324 234 363 207T403 125Q403 63 352 27T227 -9Q179
-9 134 5T67 42Q43 66 43 98Q43 119 57 134T92 150Q114 150 128 137T143 100Q143 87 139 78Q171 58 227 58Q268 58 294 73T321 116Q321 138 299 151T226 178Q136 201 97 228T57 310Q57 363 102 401T226 439Q268 439 306 427T366 393Q388 371 388 341Z" />
<glyph unicode="t" glyph-name="t" horiz-adv-x="348" d="M211 -8Q135 -8 107 46Q94 74 94 109V357H13V431H94V530L180 565V431H311V357H180V124Q180 105 186 91Q198 70 235 70Q267 70 317 94L308 17Q260 -8 211 -8Z" />
<glyph unicode="u" glyph-name="u" horiz-adv-x="558" d="M223 -8Q145 -8 109 49Q89 86 89 137V357H22V431H174V156Q174 124 185 104Q202 71 248 71Q308 71 377 136V357H308V431H463V72H530V0H380V75Q303 -8 223 -8Z" />
<glyph unicode="v" glyph-name="v" horiz-adv-x="529" d="M237 -12L60 357H6V431H215V360H149L266 101L383 360H314V431H523V357H469L292 -12H237Z" />
<glyph unicode="w" glyph-name="w" horiz-adv-x="708" d="M183 -17L69 357H6V431H215V359H150L220 113L331 384H384L496 113L566 359H494V431H702V357H639L526 -17H472L354 263L237 -17H183Z" />
<glyph unicode="x" glyph-name="x" horiz-adv-x="517" d="M17 0V74H74L210 218L81 357H25V431H226V362H171L259 257L347 362H291V431H490V357H433L306 221L443 74H500V0H297V69H353L256 182L160 69H217V0H17Z" />
<glyph unicode="y" glyph-name="y" horiz-adv-x="521" d="M222 -134Q172 -199 109 -199Q73 -199 50 -182T27 -138Q27 -115 40 -102T74 -89Q109 -89 121 -125Q143 -117 165 -86Q178 -64 192 -37L221 23L62 357H6V431H216V360H150L206 232Q263 104 262 104L376 360H307V431H515V357H459L256
-76Q239 -110 222 -134Z" />
<glyph unicode="z" glyph-name="z" horiz-adv-x="455" d="M33 0V45L303 362H125V279H50V431H418V387L149 70H348V152H422V0H33Z" />
<glyph unicode="{" glyph-name="braceleft" horiz-adv-x="364" d="M315 -217Q192 -214 131 -171T69 -58Q69 -17 88 12T149 81Q194 124 194 155Q194 187 163 207T78 227H55V301H78Q131 301 162 321T194 373Q194 404 149 447Q108 486 89 515T69 586Q69 656 130 699T315
745V678Q229 673 191 647T152 585Q152 554 212 492Q283 421 283 371Q283 333 253 304T164 264Q222 253 252 224T283 157Q283 107 212 36Q152 -26 152 -57Q152 -93 190 -119T315 -150V-217Z" />
<glyph unicode="|" glyph-name="bar" horiz-adv-x="276" d="M100 -200V732H176V-200H100Z" />
<glyph unicode="}" glyph-name="braceright" horiz-adv-x="364" d="M49 -217V-150Q135 -145 173 -119T212 -57Q212 -26 152 36Q81 107 81 157Q81 195 111 224T200 264Q142 275 112 304T81 371Q81 421 152 492Q212 554 212 585Q212 621 174 647T49 678V745Q172
742 233 699T295 586Q295 545 276 516T215 447Q170 404 170 373Q170 341 201 321T286 301H309V227H286Q233 227 202 207T170 155Q170 124 215 81Q256 42 275 13T295 -58Q295 -128 234 -171T49 -217Z" />
<glyph unicode="~" glyph-name="asciitilde" horiz-adv-x="444" d="M296 188Q250 188 208 226Q174 256 153 256Q117 256 104 195L42 211Q48 269 78 305T148 342Q193 342 236 303Q272 273 291 273Q327 273 340 334L402 319Q396 261 366 225T296 188Z" />
</font>
</defs>
</svg>
